# xmcd
#
# Track frame offsets: 
#        150
#        20337
#        22526
#        37345
#        54744
#        56609
#        71360
#        74101
#        90449
#        94786
#        108648
#        110688
#        128067
#        130878
#        148032
#        150588
#        170698
#        172884
#        187925
#        191354
#        210998
#        212870
#        237768
#
# Disc length: 3226 seconds
#
# Revision: 0
# Processed by: cddbd v1.5.2PL0 Copyright (c) Steve Scherf et al.
# Submitted via: ExactAudioCopy v0.99pb3
#
DISCID=420c9817
DTITLE=Tipitina - I Wish I Was In New Orleans
DYEAR=2007
DGENRE=Blues
TTITLE0=I Wish I was in New Orleans
TTITLE1=Mr Jelly
TTITLE2=Hit That Jive Jack
TTITLE3=Something You Got
TTITLE4=Cousin Joe
TTITLE5=Dream a Little Dream Of Me
TTITLE6=Tuts Washington
TTITLE7=I Never Fool Nobody But Me
TTITLE8=Champion Jack
TTITLE9=You Talk Too Much
TTITLE10=Dr John Creaux
TTITLE11=It Ain't Gonna Worry My Mind
TTITLE12=Little Lovin' Henry
TTITLE13=Trouble In Mind
TTITLE14=Three Fingered Mamie Desdunes
TTITLE15=I Wish I Knew How It Would Be To Be Free
TTITLE16=Toussaint
TTITLE17=Ain't Misbehaving
TTITLE18=The Fat Man
TTITLE19=Hit The Road Jack
TTITLE20=Pride Of New Orleans
TTITLE21=Breaking Up THe House
TTITLE22=The Bayou Maharajah
EXTD=
EXTT0=
EXTT1=
EXTT2=
EXTT3=
EXTT4=
EXTT5=
EXTT6=
EXTT7=
EXTT8=
EXTT9=
EXTT10=
EXTT11=
EXTT12=
EXTT13=
EXTT14=
EXTT15=
EXTT16=
EXTT17=
EXTT18=
EXTT19=
EXTT20=
EXTT21=
EXTT22=
PLAYORDER=
